<svg xmlns="http://www.w3.org/2000/svg" xmlns:xlink="http://www.w3.org/1999/xlink" width="125" height="120" viewBox="0 0 125 120">
    <defs>
        <path id="a" d="M0 0h150v150H0z"/>
    </defs>
    <g fill="none" fill-rule="evenodd" transform="translate(-13 -15)">
        <mask id="b" fill="#fff">
            <use xlink:href="#a"/>
        </mask>
        <g fill-rule="nonzero" mask="url(#b)">
            <path fill="#E76727" d="M108.16 67.577a38.462 38.462 0 0 0-60.32 13.365V58.058L13 61.198v16.026h12.82v56.891h22.052V111.36a38.237 38.237 0 0 0 35 22.82c1.36-.004 2.718-.079 4.07-.224a38.013 38.013 0 0 0 21.186-66.41m-25.256 47.692c-10.621 0-19.231-8.61-19.231-19.23 0-10.621 8.61-19.231 19.23-19.231 10.622 0 19.232 8.61 19.232 19.23 0 10.621-8.61 19.231-19.231 19.231"/>
            <path fill="#56565A" d="M136.75 63.891l-28.846-12.82-3.205 31.826 10.865-6.602a38.141 38.141 0 0 1 5.289 19.23c-.095 19.858-15.15 36.447-34.904 38.462h1.795c24.278-2.486 42.721-22.966 42.66-47.372a45.16 45.16 0 0 0-3.205-16.794l9.615-5.93"/>
            <path fill="#E76727" d="M40.5 28.987h-3.462l-6.41 16.955h3.686l1.57-4.519h5.257l1.603 4.52h4.102L40.5 28.986zm-4.038 9.968l2.179-5.833 1.923 5.833h-4.102zM21.397 39.692l-4.935-10.705H13v16.955h3.397l-.032-9.327 4.039 8.622h1.506l4.263-8.814v9.52h3.686V28.986h-3.686zM54.282 28.987l-3.461 7.051-3.206-7.05h-4.327l5.321 10.768v6.218h3.91v-6.218l5.545-10.769zM65.628 28.795a7.724 7.724 0 0 0-8.14 8.461 8.173 8.173 0 1 0 16.281 0 7.724 7.724 0 0 0-8.173-8.461m0 14.52c-2.756 0-4.39-2.277-4.39-6.059s1.602-5.512 4.39-5.512c2.789 0 4.391 2.019 4.391 5.512 0 3.494-1.634 6.058-4.39 6.058M88.128 45.045a6.026 6.026 0 0 1-.64-2.853 4.455 4.455 0 0 0-1.796-3.782 4.776 4.776 0 0 0 2.276-4.295c0-4.519-3.397-5.128-6.73-5.128h-5.642v16.987h3.686v-6.41h2.436c1.538 0 2.147.77 2.147 2.692a6.667 6.667 0 0 0 .77 3.43v.256h3.397v-.769m-3.846-10.801c0 1.763-.801 2.628-2.5 2.628h-2.5v-5.192h2.34c1.955 0 2.628.64 2.628 2.436M90.5 28.987h3.686v16.955H90.5zM104.346 36.103c-2.02-.577-3.91-1.122-3.91-2.565 0-1.442.93-1.859 2.5-1.859 1.57 0 2.949.321 2.949 2.404.01.182.01.364 0 .545v.61h3.205v-.45a5.513 5.513 0 0 0 0-.769c0-3.205-2.404-5.288-6.41-5.288-4.007 0-6.41 2.051-6.41 5 0 3.622 3.204 4.615 5.897 5.384 1.73.513 3.205.962 3.205 1.988 0 1.025-1.186 2.147-3.205 2.147a2.82 2.82 0 0 1-3.205-2.853v-.544h-2.629v.576c.16 3.783 2.468 5.77 6.667 5.77 4.712 0 6.827-2.885 6.827-5.545s-2.885-3.782-5.449-4.52M123.256 28.987h-12.884v2.82h4.487v14.167h3.654V31.808h4.743zM131.077 28.987h-3.462l-6.41 16.955h3.59l1.57-4.519h5.225l1.602 4.52h4.103l-6.218-16.956zm-4.039 9.968l2.052-5.833 2.051 5.833h-4.103z"/>
            <path fill="#56565A" d="M22.135 22.449c0 1.666-.994 3.557-4.295 3.557-3.302 0-4.487-1.442-4.487-3.91h2.852c0 1.122.577 1.699 1.57 1.699.994 0 .898-.224.898-.77-.16-1.41-5.064-1.025-5.064-4.615 0-1.698 1.41-3.205 4.263-3.205 2.852 0 3.974 1.186 3.974 3.205.013.182.013.364 0 .545h-2.788v-.449c.032-.737-.417-1.121-1.186-1.121-.77 0-.962.288-.962.64 0 1.54 5.225 1.475 5.225 4.392M26.27 21.936c0 1.154.288 1.859 1.41 1.859 1.121 0 1.346-.737 1.346-1.86v-6.41h3.205v6.41a3.942 3.942 0 0 1-4.487 4.04 3.942 3.942 0 0 1-4.552-4.04v-6.41h3.205v6.41M36.654 25.782h-3.205V15.397h4.904a3.205 3.205 0 0 1 3.493 3.462 3.526 3.526 0 0 1-3.493 3.814h-1.7v3.205-.096zm0-8.301v3.205h.897c.641 0 1.282-.449 1.282-1.667s-.64-1.602-1.282-1.602l-.897.064zM43.192 15.397h7.116v1.988h-3.975v2.147h3.141v1.955h-3.14v2.276h4.102v2.02h-7.244zM54.859 25.782h-3.205V15.397h4.904c2.115 0 3.686.834 3.686 3.206a2.82 2.82 0 0 1-1.86 2.724 2.244 2.244 0 0 1 1.571 2.244c0 1.73.449 2.019.449 2.019h-3.205a2.885 2.885 0 0 1-.353-1.699c0-1.57-.609-1.955-1.154-1.955h-1.025v3.846h.192zm-.192-8.397v2.852h1.057c.641 0 1.282-.256 1.282-1.442s-.64-1.378-1.282-1.378l-1.057-.032zM73.096 15.397v10.385h-3.109V20.75l-2.436 4.583h-.673l-2.436-4.39v4.84h-2.724V15.396h3.077l2.596 5.225 2.532-5.225zM74.635 15.397h7.115v1.988h-4.006v2.147h3.14v1.955h-3.14v2.276h4.134v2.02h-7.243zM86.333 25.782h-3.205V15.397h4.904c2.115 0 3.686.834 3.686 3.206a2.82 2.82 0 0 1-1.859 2.724 2.244 2.244 0 0 1 1.57 2.244c0 1.73.45 2.019.45 2.019h-3.206a2.885 2.885 0 0 1-.352-1.699c0-1.57-.577-1.955-1.154-1.955H86.14v3.846h.192zm-.192-8.397v2.852h1.058c.64 0 1.282-.256 1.282-1.442s-.641-1.378-1.282-1.378l-1.058-.032zM101.782 22.096c0 2.5-1.538 3.91-4.263 3.91-3.525 0-4.968-2.403-4.968-5.448a4.808 4.808 0 0 1 5.128-5.353c2.597 0 4.135 1.25 4.135 3.205a3.91 3.91 0 0 1 0 .545h-2.692v-.417a1.186 1.186 0 0 0-1.346-1.25c-1.186 0-1.923 1.122-1.923 3.206 0 2.083.576 3.205 1.73 3.205A1.506 1.506 0 0 0 99.153 22h2.693M108.801 23.603h-3.205l-.673 2.18h-2.852l3.878-10.386h3.205L113 25.782h-3.526l-.673-2.18zm-2.596-1.988h2.051l-1.025-3.205-1.026 3.205zM114.026 15.397h4.423a4.615 4.615 0 0 1 5.032 5.065 4.84 4.84 0 0 1-5.032 5.32h-4.423V15.397zm3.205 1.956v6.41h1.314c1.314 0 1.795-1.122 1.795-3.205 0-2.084-.481-3.205-1.795-3.205h-1.314zM129.73 15.205a4.872 4.872 0 0 1 5.257 5.192 5.256 5.256 0 1 1-10.48 0 4.872 4.872 0 0 1 5.224-5.192m0 8.526c1.314 0 2.019-1.122 2.019-3.205 0-2.084-.673-2.981-2.02-2.981-1.345 0-2.018 1.058-2.018 2.98 0 1.924.673 3.206 2.019 3.206"/>
        </g>
    </g>
</svg>